<svg width="610" height="610" viewBox="0 0 610 610" fill="none" xmlns="http://www.w3.org/2000/svg">
<rect width="610" height="610" fill="#FCFF69"/>
<rect x="203" y="104" width="248" height="468" rx="30" fill="#E8B500"/>
<rect x="160" y="34" width="249" height="507" rx="30" fill="black"/>
<rect x="168" y="84" width="229" height="405" fill="white"/>
<rect x="168" y="296" width="229" height="193" fill="#E8E8E8"/>
<rect x="168" y="84" width="229" height="41" fill="#F5F5F5"/>
<rect x="168" y="334" width="229" height="155" fill="#F3F3F3"/>
<path d="M204.648 376.818C204.648 370.375 200.869 366.358 195.659 366.358C190.449 366.358 186.67 370.375 186.67 376.818C186.67 383.261 190.449 387.278 195.659 387.278C196.991 387.278 198.224 387.02 199.328 386.523L201.108 388.909H203.812L201.158 385.379C203.325 383.599 204.648 380.636 204.648 376.818ZM194.864 380.636L197.886 384.594C197.19 384.842 196.445 384.972 195.659 384.972C191.96 384.972 189.057 382.108 189.057 376.818C189.057 371.528 191.96 368.665 195.659 368.665C199.358 368.665 202.261 371.528 202.261 376.818C202.261 379.891 201.287 382.138 199.736 383.49L197.568 380.636H194.864ZM212.493 387H215.038L219.533 370.773H219.692L224.186 387H226.732L232.3 366.636H229.794L225.538 383.222H225.339L221.004 366.636H218.22L213.885 383.222H213.686L209.43 366.636H206.925L212.493 387ZM235.372 387H247.821V384.812H237.838V377.892H247.026V375.705H237.838V368.824H247.662V366.636H235.372V387ZM252.107 387H254.572V379.045H259.027C259.206 379.045 259.375 379.045 259.544 379.036L263.839 387H266.703L262.099 378.588C264.695 377.703 265.908 375.585 265.908 372.881C265.908 369.281 263.76 366.636 258.987 366.636H252.107V387ZM254.572 376.818V368.824H258.908C262.209 368.824 263.482 370.435 263.482 372.881C263.482 375.327 262.209 376.818 258.947 376.818H254.572ZM268.903 368.824H275.306V387H277.772V368.824H284.176V366.636H268.903V368.824ZM286.232 366.636L293.589 378.608V387H296.055V378.608L303.413 366.636H300.589L294.942 376.142H294.703L289.055 366.636H286.232ZM319.966 366.636V380.119C319.966 383.301 317.421 385.051 314.517 385.051C311.614 385.051 309.069 383.301 309.069 380.119V366.636H306.603V380.119C306.603 384.693 310.222 387.358 314.517 387.358C318.813 387.358 322.432 384.693 322.432 380.119V366.636H319.966ZM329.822 366.636H327.357V387H329.822V366.636ZM351.949 376.818C351.949 370.375 348.17 366.358 342.96 366.358C337.75 366.358 333.971 370.375 333.971 376.818C333.971 383.261 337.75 387.278 342.96 387.278C348.17 387.278 351.949 383.261 351.949 376.818ZM349.562 376.818C349.562 382.108 346.659 384.972 342.96 384.972C339.261 384.972 336.358 382.108 336.358 376.818C336.358 371.528 339.261 368.665 342.96 368.665C346.659 368.665 349.562 371.528 349.562 376.818ZM356.095 387H358.561V379.562H363.015C367.758 379.562 369.896 376.679 369.896 373.08C369.896 369.48 367.758 366.636 362.975 366.636H356.095V387ZM358.561 377.375V368.824H362.896C366.207 368.824 367.47 370.634 367.47 373.08C367.47 375.526 366.207 377.375 362.936 377.375H358.561ZM188.301 421L190.349 415.233H198.582L200.631 421H203.216L195.739 400.636H193.193L185.716 421H188.301ZM191.125 413.045L194.386 403.858H194.545L197.807 413.045H191.125ZM217.524 405.727H219.911C219.801 402.655 216.967 400.358 213.03 400.358C209.132 400.358 206.07 402.625 206.07 406.045C206.07 408.79 208.058 410.42 211.24 411.335L213.746 412.051C215.893 412.648 217.803 413.403 217.803 415.432C217.803 417.659 215.655 419.131 212.831 419.131C210.405 419.131 208.257 418.057 208.058 415.75H205.513C205.751 419.091 208.456 421.358 212.831 421.358C217.524 421.358 220.189 418.773 220.189 415.472C220.189 411.653 216.57 410.42 214.462 409.864L212.393 409.307C210.882 408.909 208.456 408.114 208.456 405.926C208.456 403.977 210.246 402.545 212.95 402.545C215.416 402.545 217.286 403.719 217.524 405.727ZM230.527 421C236.732 421 240.232 417.142 240.232 410.778C240.232 404.455 236.732 400.636 230.806 400.636H224.243V421H230.527ZM226.709 418.812V402.824H230.647C235.419 402.824 237.846 405.847 237.846 410.778C237.846 415.75 235.419 418.812 230.368 418.812H226.709ZM244.368 421H246.834V411.892H255.664V409.705H246.834V402.824H256.578V400.636H244.368V421ZM274.722 407H277.268C276.512 403.062 273.211 400.358 268.915 400.358C263.695 400.358 260.006 404.375 260.006 410.818C260.006 417.261 263.665 421.278 269.075 421.278C273.927 421.278 277.387 418.047 277.387 413.006V410.818H269.631V413.006H275.001C274.931 416.665 272.525 418.972 269.075 418.972C265.296 418.972 262.393 416.108 262.393 410.818C262.393 405.528 265.296 402.665 268.915 402.665C271.859 402.665 273.857 404.325 274.722 407ZM281.61 421H284.076V411.892H294.934V421H297.4V400.636H294.934V409.705H284.076V400.636H281.61V421ZM310.132 400.636V415.193C310.132 417.729 308.919 419.091 306.792 419.091C304.853 419.091 303.451 417.957 303.451 416.227H301.025C301.025 419.359 303.451 421.278 306.792 421.278C310.331 421.278 312.598 419.101 312.598 415.193V400.636H310.132ZM317.54 421H320.006V414.398L322.551 411.534L329.631 421H332.614L324.063 409.824L332.614 400.636H329.392L320.245 410.739H320.006V400.636H317.54V421ZM335.806 421H347.738V418.812H338.272V400.636H335.806V421ZM186.79 455H200.83V452.812H189.733L200.71 436.426V434.636H186.67V436.824H197.767L186.79 453.21V455ZM206.159 434.636H203.256L209.818 444.818L203.256 455H206.159L211.409 446.688H211.568L216.818 455H219.722L213.318 444.818L219.722 434.636H216.818L211.568 443.108H211.409L206.159 434.636ZM238.989 441C238.233 436.824 234.892 434.358 230.796 434.358C225.586 434.358 221.807 438.375 221.807 444.818C221.807 451.261 225.586 455.278 230.796 455.278C234.892 455.278 238.233 452.812 238.989 448.636H236.523C235.926 451.46 233.5 452.972 230.796 452.972C227.097 452.972 224.194 450.108 224.194 444.818C224.194 439.528 227.097 436.665 230.796 436.665C233.5 436.665 235.926 438.176 236.523 441H238.989ZM243.809 434.636H241.224L248.701 455H251.246L258.724 434.636H256.138L250.093 451.778H249.854L243.809 434.636ZM261.896 455H269.254C274.066 455 276.055 452.653 276.055 449.591C276.055 446.369 273.827 444.619 271.958 444.5V444.301C273.708 443.824 275.259 442.67 275.259 440.045C275.259 437.062 273.271 434.636 269.015 434.636H261.896V455ZM264.362 452.812V445.733H269.373C272.038 445.733 273.708 447.523 273.708 449.591C273.708 451.381 272.475 452.812 269.254 452.812H264.362ZM264.362 443.585V436.824H269.015C271.719 436.824 272.913 438.256 272.913 440.045C272.913 442.193 271.163 443.585 268.935 443.585H264.362ZM296.254 434.636H293.828V450.665H293.629L282.493 434.636H280.107V455H282.572V439.011H282.771L293.868 455H296.254V434.636ZM301.189 434.636V455H303.495V439.528H303.694L310.058 455H312.285L318.649 439.528H318.848V455H321.154V434.636H318.211L311.291 451.54H311.052L304.132 434.636H301.189Z" fill="black"/>
<rect x="189" y="147" width="57" height="29" rx="14.5" fill="#EDEDED"/>
<rect x="189" y="182" width="110" height="29" rx="14.5" fill="#EDEDED"/>
<rect x="189" y="217" width="94" height="29" rx="14.5" fill="#EDEDED"/>
<rect x="275" y="256" width="111" height="30" rx="15" fill="#EDEDED"/>
<path d="M326.5 320.994H324.545C323.889 320.994 323.31 320.434 322.809 319.312C322.435 318.474 322.134 317.394 321.906 316.072C321.633 316.583 321.286 316.979 320.867 317.262C320.448 317.544 320.006 317.686 319.541 317.686C318.493 317.686 317.618 317.617 316.916 317.48C316.223 317.335 315.877 317.152 315.877 316.934C315.877 316.15 316.387 315.284 317.408 314.336C318.429 313.379 319.705 312.545 321.236 311.834C321.218 311.761 321.177 311.57 321.113 311.26C321.059 310.95 321.031 310.758 321.031 310.686C321.031 310.376 321.136 310.029 321.346 309.646C321.519 309.337 321.747 309.018 322.029 308.689C322.12 309.255 322.212 309.801 322.303 310.33C322.403 310.859 322.517 311.406 322.645 311.971L323.055 314.322C323.283 315.617 323.488 316.574 323.67 317.193C323.952 318.141 324.244 318.615 324.545 318.615H326.5V320.994ZM321.729 314.883L321.469 313.393C320.676 313.675 320.051 313.971 319.596 314.281C319.14 314.582 318.757 314.983 318.447 315.484C318.639 315.566 318.862 315.63 319.117 315.676C319.372 315.721 319.723 315.744 320.17 315.744C320.717 315.744 321.236 315.457 321.729 314.883ZM323.014 304.643L322.002 306.625L319.76 305.477L320.799 303.494L323.014 304.643ZM319.896 305.914L318.871 307.869L316.615 306.707L317.682 304.738L319.896 305.914ZM333.336 320.994H325.543V318.615H332.338C332.338 317.54 332.21 316.719 331.955 316.154C331.782 315.762 331.354 315.197 330.67 314.459L331.736 312.23C332.393 313.06 332.803 313.707 332.967 314.172C333.213 314.874 333.336 316.036 333.336 317.658V320.994ZM333.254 307.486L332.242 309.469L330 308.32L331.039 306.338L333.254 307.486ZM330.137 308.758L329.111 310.713L326.855 309.551L327.922 307.582L330.137 308.758ZM340.172 320.994H332.379V318.615H339.174C339.174 317.54 339.046 316.719 338.791 316.154C338.618 315.762 338.189 315.197 337.506 314.459L338.572 312.23C339.229 313.06 339.639 313.707 339.803 314.172C340.049 314.874 340.172 316.036 340.172 317.658V320.994ZM339.092 308.361L338.025 310.344L335.811 309.195L336.822 307.199L339.092 308.361ZM353.857 320.994C353.857 321.997 353.429 323.036 352.572 324.111C351.825 325.059 350.895 325.875 349.783 326.559C348.726 327.215 347.855 327.543 347.172 327.543C346.543 327.543 345.864 327.452 345.135 327.27C344.579 327.133 343.913 326.919 343.139 326.627C342.482 326.381 341.831 326.135 341.184 325.889L341.416 325.342C342.018 325.46 342.642 325.579 343.289 325.697C343.945 325.825 344.538 325.889 345.066 325.889C346.233 325.889 347.45 325.515 348.717 324.768C349.865 324.084 350.845 323.223 351.656 322.184C352.467 321.135 352.873 320.192 352.873 319.354C352.873 318.633 352.663 317.877 352.244 317.084C351.907 316.446 351.433 315.79 350.822 315.115L351.602 312.969C352.349 313.661 352.9 314.354 353.256 315.047C353.657 315.831 353.857 316.706 353.857 317.672V320.994ZM364.904 320.994H362.895C362.302 320.994 361.701 320.853 361.09 320.57C360.361 320.233 359.832 319.764 359.504 319.162C358.893 319.709 358.196 320.133 357.412 320.434C356.455 320.807 355.366 320.994 354.145 320.994H352.914V318.615H354.145C354.91 318.615 355.621 318.533 356.277 318.369C357.025 318.178 357.758 317.872 358.479 317.453L357.904 316.715C357.613 316.368 357.285 316.195 356.92 316.195C356.756 316.195 356.61 316.227 356.482 316.291C356.355 316.346 356.214 316.473 356.059 316.674H355.771V315.867C355.771 314.865 356.036 314.176 356.564 313.803C357.048 313.465 357.886 313.297 359.08 313.297C360.11 313.297 360.949 313.434 361.596 313.707C362.443 314.062 362.867 314.609 362.867 315.348C362.867 315.74 362.699 316.145 362.361 316.564C362.115 316.874 361.664 317.303 361.008 317.85C361.154 318.068 361.432 318.251 361.842 318.396C362.261 318.542 362.612 318.615 362.895 318.615H364.904V320.994ZM370.715 320.994H363.961V318.615H369.334L367.707 307.021L366.996 306.68C366.996 306.051 367.051 305.463 367.16 304.916C367.27 304.36 367.434 303.822 367.652 303.303L367.857 303.453C367.857 303.982 368.154 304.378 368.746 304.643C369.202 304.825 369.662 305.007 370.127 305.189C370.127 305.645 370.09 306.133 370.018 306.652C369.945 307.172 369.858 307.559 369.758 307.814L369.102 307.596L370.715 318.314V320.994ZM375.336 317.508C375.336 318.237 375.204 318.943 374.939 319.627C374.803 319.992 374.507 320.57 374.051 321.363L373.805 321.227C373.832 320.962 373.855 320.657 373.873 320.311C373.9 319.964 373.914 319.732 373.914 319.613C373.914 318.665 373.837 317.344 373.682 315.648C373.536 313.944 373.358 312.167 373.148 310.316C373.021 309.195 372.88 308.051 372.725 306.885C372.907 306.484 373.112 306.051 373.34 305.586C373.577 305.121 373.8 304.684 374.01 304.273C374.156 305.312 374.338 306.734 374.557 308.539C374.785 310.344 374.962 311.971 375.09 313.42C375.254 315.225 375.336 316.587 375.336 317.508Z" fill="black"/>
</svg>
