<svg width="610" height="610" viewBox="0 0 610 610" fill="none" xmlns="http://www.w3.org/2000/svg">
<path d="M0 0H610V610H0V0Z" fill="#00D1FF"/>
<rect x="102.504" y="176.869" width="453.229" height="310.527" rx="30" fill="#0067B1"/>
<path d="M55 149C55 132.431 68.4315 119 85 119H490C506.569 119 520 132.431 520 149V426C520 442.569 506.569 456 490 456H85C68.4315 456 55 442.569 55 426V149Z" fill="#E7E7E7"/>
<path d="M55 151.575C55 133.584 69.5586 119 87.5175 119H487.483C505.441 119 520 133.584 520 151.575V423.425C520 441.416 505.441 456 487.483 456H87.5175C69.5586 456 55 441.416 55 423.425V151.575Z" fill="#E7E7E7"/>
<rect x="68" y="304" width="436" height="128" fill="#80E8FF"/>
<rect x="68" y="156" width="436" height="148" fill="white"/>
<path d="M162.441 239L175.473 258.273L190.739 249.203L226.111 304H122.602L162.441 239Z" fill="#CAEBE9"/>
<path d="M122.602 304H173.35H226.11L183.902 406L122.602 304Z" fill="#9BCDDD"/>
</svg>
