<svg width="610" height="610" viewBox="0 0 610 610" fill="none" xmlns="http://www.w3.org/2000/svg">
<rect width="610" height="610" fill="#FFC7C7"/>
<rect x="138" y="347" width="398" height="166" fill="#BE6C6C"/>
<rect x="156" y="201" width="380" height="306" rx="30" fill="#BE6C6C"/>
<rect x="127" y="124" width="379" height="361" rx="30" fill="white"/>
<rect x="349" y="250" width="157" height="235" fill="white"/>
<rect x="104" y="124" width="292" height="31" fill="white"/>
<rect x="104" y="201" width="383" height="284" fill="black"/>
<rect x="104" y="155" width="383" height="46" fill="#E7E7E7"/>
<rect x="104" y="170" width="288" height="20" fill="white"/>
<circle cx="392" cy="180" r="10" fill="white"/>
<circle cx="424" cy="180" r="11" fill="#FF9999"/>
<rect x="296.09" y="197.689" width="148.002" height="277.788" fill="white"/>
<path d="M405.112 248.673C406.022 247.848 407.176 247.502 408.467 247.498C408.03 248.262 407.56 248.962 407.057 249.566C406.548 250.177 405.697 250.827 404.865 250.827C402.845 250.827 404.194 249.505 405.112 248.673Z" fill="black"/>
<path d="M331.703 242.15C331.703 243.157 330.068 242.548 328.668 241.84C328.758 241.759 328.848 241.677 328.938 241.596C329.652 240.95 331.703 240.742 331.703 242.15Z" fill="black"/>
<path d="M336.693 262.695C340.809 262.695 344.557 261.861 348.494 261.861C351.124 261.861 350.735 265.317 350.259 267.284C349.573 270.122 345.768 271.299 343.098 270.992C338.685 270.485 339.416 265.57 339.416 262.695M375.043 261.481C370.946 261.823 367.132 261.305 363.214 261.633C360.595 261.851 361.324 265.254 361.991 267.17C362.954 269.933 366.858 270.787 369.485 270.26C373.828 269.389 372.615 264.564 372.332 261.707M390.32 271.637C391.229 275.472 393.972 279.801 397.826 281.569C407.788 286.14 417.915 284.862 426.478 277.733C434.506 271.049 430.798 261.039 423.848 255.294C421.222 253.124 413.713 247.483 408.467 247.498M408.467 247.498C407.176 247.502 406.022 247.848 405.112 248.673C404.194 249.505 402.845 250.827 404.865 250.827C405.697 250.827 406.548 250.177 407.057 249.566C407.56 248.962 408.03 248.262 408.467 247.498ZM408.467 247.498C410.29 244.314 411.552 240.027 412.398 237.033C413.751 232.249 415.959 224.051 410.7 220.611C406.132 217.623 400.206 220.327 396.949 223.764C394.615 226.227 392.645 229.137 391.8 232.382M349.399 233.292C346.151 226.032 338.974 210.071 329.276 218.376C322.842 223.886 318.351 235.233 326.726 240.735C326.868 240.828 327.714 241.357 328.668 241.84M328.668 241.84C330.068 242.548 331.703 243.157 331.703 242.15C331.703 240.742 329.652 240.95 328.938 241.596C328.848 241.677 328.758 241.759 328.668 241.84ZM328.668 241.84C321.626 248.229 314.101 255.498 310.198 264.262C305.936 273.833 317.851 277.518 325.19 277.518C329.943 277.518 333.915 276.46 333.915 271.49M341.657 272.043C339.833 272.444 337.719 273.311 336.25 274.381C334.783 275.448 333.306 275.027 331.703 276.472C328.346 279.496 324.556 281.543 323.531 286.559C322.952 289.39 324.224 292.738 326.726 294.064C327.961 294.718 330.597 295.342 330.597 296.954C326.779 296.209 325.307 296.04 323.162 299.415C321.882 301.428 322.302 304.091 322.302 306.365C322.302 308.774 321.749 311.31 321.749 313.839C321.749 315.672 328.189 314.116 329.491 314.116C338.405 314.116 348.421 310.196 353.147 302.06C354.397 299.907 355.113 295.502 354.068 293.11C353.596 292.03 349.398 287.232 349.398 289.204C353.45 287.095 356.836 284.174 360.458 281.454M353.269 288.097C361.941 291.286 373.745 291.146 381.748 286.067C385.168 283.897 387.135 281.859 388.538 278.133C388.844 277.319 390.2 274.691 389.767 274.258M359.905 291.972C360.42 294.614 361.481 297.272 360.981 300.03C360.686 301.652 358.959 303.194 358.246 304.705C357.555 306.17 357.144 307.846 356.587 309.379C356.236 310.346 353.337 316.435 353.269 315.223C353.088 311.959 351.057 309.007 351.057 305.812M372.624 290.865C371.607 293.184 369.306 294.367 369.306 296.678V303.844C369.306 304.817 368.72 313.276 369.613 313.531C375.144 315.113 375.942 305.3 375.942 302.06C375.942 299.019 375.982 296.396 377.048 293.51C377.913 291.168 378.707 288.927 378.707 286.436M382.578 285.883C383.854 287.518 385.191 289.522 387.248 290.188C389.364 290.874 389.406 292.133 391.733 292.557C393.634 292.903 396.5 294.762 396.925 296.678C399.525 308.391 399.721 320.403 399.721 332.384M328.385 330.723C328.385 327.96 328.147 325.514 329.245 322.973C329.724 321.865 329.999 319.883 330.044 318.667C330.11 316.877 331.138 316.365 331.703 314.669M327.279 332.384C330.563 337.265 335.066 338.447 339.445 341.856C341.474 343.436 344.791 346.851 347.187 347.331M353.269 337.92C352.235 335.767 351.51 333.34 350.197 331.338C349.25 329.893 348.048 328.749 347.432 327.094C346.93 325.744 345.956 324.813 345.528 323.527M378.154 347.331C384.181 343.87 389.602 339.551 395.542 336.044C397.477 334.902 399.523 334.084 400.274 331.83M372.624 335.152C374.606 331.947 376.8 328.886 379.229 326.048C379.703 325.495 380.475 326.019 380.919 325.464C381.358 324.914 381.454 324.366 382.025 324.08M347.74 348.991C351.011 351.399 354.141 353.974 358.246 353.974C359.417 353.974 360.517 354.126 361.564 353.543C362.239 353.168 364.074 350.813 364.882 351.452C367.211 353.292 371.872 353.418 374.406 351.759C375.55 351.011 379.326 348.016 378.707 346.777M353.269 338.473C354.021 338.473 365.169 339.165 365.466 338.719C366.489 337.183 368.559 336.001 370.412 335.736C371.616 335.564 374.96 336.445 373.73 334.598M348.846 233.292C351.652 232.744 354.424 231.632 357.263 231.632H368.2C371.181 231.632 374.542 231.195 377.478 231.755C379.588 232.157 380.906 232.739 383.131 232.739M347.729 347.889C348.377 344.569 348.929 343.165 351.324 341.246C352.662 340.175 353.812 340.319 353.812 338.478M377.591 346.229C377.428 342.816 376.144 338.861 373.167 337.371" stroke="black" stroke-width="5" stroke-linecap="round" stroke-linejoin="round"/>
<path d="M365.598 337.802C366.4 337.679 367.19 337.514 367.997 337.405C369.602 337.189 371.308 337.205 372.905 337.468C373.643 337.589 374.376 337.751 375.103 337.922C375.666 338.054 376.165 338.203 376.659 338.492C377.028 338.708 377.52 338.936 377.77 339.285" stroke="black" stroke-width="5" stroke-linecap="round" stroke-linejoin="round"/>
<path d="M367.528 264.084C366.716 263.88 365.979 263.749 365.145 263.792C364.854 263.807 364.583 264.084 364.212 264.084C363.818 264.084 363.397 264.232 363.383 263.792C363.372 263.475 363.156 263.637 363.095 263.846C362.976 264.254 363.215 264.709 363.325 265.093C363.63 266.159 363.247 267.363 364.523 267.894C364.905 268.054 365.32 268.255 365.663 268.477C366.143 268.79 366.673 268.517 367.177 268.699C367.639 268.865 368.325 268.747 368.818 268.747C369.42 268.747 369.853 268.697 370.384 268.413C371.444 267.845 370.887 266.475 371.058 265.595C371.131 265.217 371.33 264.877 371.518 264.564C371.71 264.245 371.787 263.93 371.466 263.77C371.339 263.707 371.353 263.512 371.282 263.403C371.149 263.199 370.839 263.209 370.614 263.209C369.931 263.209 369.248 263.209 368.565 263.209C367.613 263.209 366.661 263.209 365.709 263.209C364.778 263.209 365.277 264.708 365.248 265.249C365.232 265.554 365.054 265.883 365.041 266.2C365.019 266.731 365.423 266.693 365.824 266.993C366.225 267.293 366.907 267.131 367.373 267.198C367.872 267.27 368.238 267.484 368.772 267.484C369.803 267.484 370.13 266.728 370.01 265.827C369.834 264.506 368.24 264.779 367.378 265.325C366.873 265.645 366.243 265.824 366.285 266.513C366.317 267.053 367.47 266.756 367.793 266.648C368.215 266.505 369.017 265.792 369.492 265.94C369.611 265.978 369.903 266.857 369.29 266.513" stroke="black" stroke-width="5" stroke-linecap="round" stroke-linejoin="round"/>
<path d="M340.238 264.241C342.291 264.241 344.343 264.241 346.395 264.241C346.994 264.241 347.592 264.241 348.191 264.241C348.406 264.241 348.847 264.138 348.858 264.42C348.877 264.911 348.772 265.401 348.63 265.87C348.327 266.871 347.683 268.591 346.498 268.659C345.421 268.721 343.928 269.628 342.855 269.161C342.381 268.955 342.049 268.121 341.857 267.7C341.808 267.59 341.492 267.21 341.418 267.153C341.32 267.076 341.059 266.518 341.059 266.394C341.059 266.03 340.989 265.786 341.264 265.546C341.677 265.188 342.202 265.529 342.393 265.903C342.832 266.762 342.735 267.72 343.932 267.85C345.331 268.002 346.079 267.131 346.475 265.926C346.575 265.623 346.773 265.327 346.697 264.994C346.586 264.503 344.79 265.046 344.56 265.145C344.087 265.347 343.577 265.453 343.112 265.669C342.94 265.749 342.784 265.747 342.598 265.747C342.4 265.747 342.948 265.935 343.134 266.004C343.437 266.116 343.773 265.993 344.081 266.071C344.378 266.146 344.68 266.284 344.959 266.406C345.147 266.487 345.956 266.551 345.369 266.551" stroke="black" stroke-width="5" stroke-linecap="round" stroke-linejoin="round"/>
<path d="M344.561 338.846C345.27 341.027 345.76 343.078 346.639 345.201C346.746 345.459 347.78 347.772 347.044 346.526C346.291 345.252 345.694 343.886 344.951 342.565C343.8 340.52 343.035 338.215 341.689 336.139C340.575 334.42 339.509 332.718 338.586 330.895C337.867 329.475 336.732 328.384 335.96 327.048C335.506 326.264 334.102 325.841 333.391 325.239C332.544 324.522 331.914 323.961 330.793 324.427C330.138 324.699 329.542 326.757 329.494 327.561C329.451 328.283 329.494 329.019 329.494 329.741C329.494 330.626 328.544 330.21 328.253 330.753C327.548 332.067 329.029 331.699 329.609 332.064C330.087 332.364 330.698 332.962 330.995 333.46C331.092 333.623 331.908 334.59 332.092 334.685C332.415 334.854 333.179 334.52 333.391 334.885C333.989 335.919 335.454 337.364 336.494 337.963C336.823 338.152 336.901 338.44 337.085 338.732C337.222 338.948 337.65 338.834 337.865 339.045C338.18 339.357 338.935 339.719 339.106 340.014C339.648 340.951 341.133 341.308 341.704 342.294C341.965 342.746 342.377 342.949 342.873 342.949C343.477 342.949 343.621 343.674 343.984 344.032C345.303 345.335 343.268 340.047 341.761 338.96C340.973 338.391 340.943 337.354 340.26 336.68C339.509 335.938 339.171 335.377 338.586 334.543C337.72 333.307 336.479 331.69 335.209 330.952C334.816 330.724 334.141 329.584 333.968 329.157C333.684 328.456 333.046 328.277 332.857 327.433C332.73 326.869 332.224 325.865 331.89 325.453C331.728 325.253 331.957 324.913 331.716 324.755C331.513 324.621 331.895 325.246 332.106 325.367C332.861 325.802 333.819 326.959 334.487 327.618C335.193 328.315 336.092 329.032 336.638 329.87C337.101 330.58 337.699 331.25 338.124 331.921C338.573 332.63 338.298 331.024 337.663 330.511C336.861 329.863 335.862 329.559 335.079 328.958C334.423 328.454 333.233 327.869 332.409 327.618C331.724 327.41 331.666 326.727 330.937 326.521C330.626 326.433 330.793 327.856 330.793 328.331C330.793 329.068 330.408 332.154 331.053 332.491C332.598 333.299 333.99 333.998 335.469 334.856C337.398 335.977 338.931 337.816 340.65 339.231C340.83 339.379 342.164 340.548 342.223 339.615C342.26 339.038 340.831 338.008 340.405 337.678C339.464 336.948 338.619 335.515 338.067 334.486C337.587 333.591 336.427 333.257 336.003 332.42C335.459 331.347 332.871 331.318 332.871 329.998C332.871 329.357 332.871 328.716 332.871 328.074C332.871 327.125 332.611 329.961 332.611 330.91C332.611 331.544 332.723 334.151 332.813 333.973C333.727 332.169 333.131 329.256 333.131 327.333C333.131 326.708 333.418 321.16 332.496 321.42C332.021 321.554 331.336 323.264 331.312 323.714C331.271 324.488 330.793 324.784 330.793 323.843C330.793 323.156 330.741 322.373 331.211 321.805C331.978 320.88 331.77 320.328 331.832 319.098C331.877 318.203 332.697 317.627 332.857 316.918C333.017 316.205 333.91 316.772 333.91 315.764C333.91 314.773 333.478 316.382 333.376 316.633C333.238 316.975 332.871 314.945 332.871 314.738C332.871 312.943 332.871 318.329 332.871 320.124C332.871 320.893 332.871 321.663 332.871 322.432C332.871 323.632 333.554 324.009 334.055 324.997C334.579 326.033 335.772 326.268 336.566 326.991C336.925 327.319 337.474 327.4 337.922 327.561C338.339 327.711 338.376 328.184 338.716 328.445C340.216 329.596 341.185 331.679 342.367 333.189C343.009 334.009 343.614 334.858 344.099 335.768C344.3 336.144 344.229 336.562 344.431 336.922C344.668 337.343 345.198 337.669 345.341 338.091C345.574 338.783 346.38 338.927 346.38 339.744C346.38 340.432 346.639 341.018 346.639 341.667C346.639 344.024 349.077 342.32 349.237 340.898C349.33 340.071 349.612 339.712 350.262 339.231C350.736 338.88 351.726 339.096 352.037 338.789C353.297 337.545 351.693 334.602 350.796 333.717C349.648 332.583 349.227 330.748 348.198 329.613C347.558 328.907 347.223 327.982 346.769 327.177C346.402 326.524 345.864 326.027 345.398 325.453C344.866 324.795 344.636 325.541 344.547 325.011C344.442 324.389 344.237 325.771 344.186 325.88C343.724 326.873 343.335 327.518 343.262 328.644C343.185 329.853 342.45 331.051 341.963 332.149C341.905 332.281 340.966 333.945 341.343 333.945C342.585 333.945 343.728 329.67 344.099 328.644C344.359 327.927 344.279 327.198 344.503 326.479C344.726 325.763 344.605 326.092 344.547 326.692C344.444 327.763 344.286 328.842 343.926 329.855C343.582 330.827 343.74 332.231 343.782 333.261C343.797 333.633 344.039 333.86 344.431 333.688C345.028 333.426 345.31 331.835 345.456 331.28C345.835 329.838 346.38 325.417 346.38 326.906C346.38 327.811 345.472 328.419 345.355 329.342C345.02 331.992 343.963 335.2 344.576 337.92C344.623 338.129 345.147 338.153 345.283 338.02C345.671 337.636 345.648 336.614 345.745 336.139C345.93 335.222 346.359 334.346 346.38 333.403C346.401 332.425 346.227 331.343 346.437 330.383C346.493 330.129 347.159 327.936 347.159 328.972C347.159 330.442 347.026 331.504 346.495 332.89C345.771 334.783 346.38 337.818 346.38 339.872C346.38 340.802 346.653 340.898 347.549 340.898C348.387 340.898 348.27 339.975 348.775 339.615C349.373 339.191 349.438 338.49 350.017 338.133C350.415 337.887 350.881 337.451 351.171 337.165C352.071 336.276 350.772 334.458 350.276 333.774C349.848 333.182 349.23 332.738 348.747 332.192C348.313 331.703 348.438 330.998 348.054 330.511C346.972 329.138 347.638 333.263 347.794 333.717C348.01 334.344 348.384 334.853 348.588 335.498C348.761 336.045 349.348 336.472 349.483 336.937C349.541 337.138 349.939 338.552 350.478 338.02C350.901 337.602 350.615 334.65 350.392 334.116C349.527 332.043 349.288 333.949 349.035 335.198C348.779 336.462 348.763 337.776 347.808 338.718C346.923 339.592 346.807 340.169 347.217 338.39C347.566 336.874 348.198 335.445 348.198 333.845C348.198 331.44 347.951 335.347 347.938 336.025C347.933 336.301 347.679 338.305 347.679 337.15C347.679 335.791 347.559 334.379 347.159 333.075C346.728 331.67 346.351 330.29 345.918 328.901C345.709 328.231 345.57 327.103 345.211 326.536C344.662 325.669 345.438 323.995 344.301 323.401C341.462 321.917 340.195 323.504 340.145 326.593C340.126 327.765 340.295 330.128 342.093 329.855C343.313 329.67 343.765 327.04 342.541 326.593C341.453 326.195 341.096 328.708 341.848 328.573C343.457 328.284 343.294 324.102 341.761 325.111C341.184 325.491 340.706 327.592 341.963 326.934C343.834 325.957 342.815 324.227 341.069 324.227C340.249 324.227 339.699 325.736 340.462 325.766C341.493 325.807 343.025 324.381 341.935 323.458C340.704 322.417 336.768 321.531 336.768 324.113C336.768 326.447 340.702 325.372 340.188 323.23C339.657 321.015 336.369 321.927 335.325 323.088C334.035 324.52 337.467 325.33 338.442 323.971C339.985 321.82 335.758 320.672 334.343 322.161C332.835 323.75 336.144 323.704 336.97 322.888C339.098 320.787 334.96 318.656 333.419 320.395C332.884 320.999 333.304 321.391 333.968 321.406C335.034 321.431 335.815 321.091 336.566 320.323C338.205 318.647 334.612 316.784 333.809 318.984C332.98 321.259 335.959 320.673 337.374 320.637C338.653 320.604 340.154 319.987 340.982 318.998C341.822 317.995 340.516 317.918 339.799 318.371C337.473 319.841 340.368 321.748 342.165 320.979C342.814 320.701 343.662 319.72 343.739 318.998C343.832 318.123 342.68 318.766 342.483 319.155C341.702 320.697 342.414 322.979 344.417 321.606C346.523 320.162 343.565 318.408 342.642 320.737C342.427 321.277 342.549 321.934 343.205 322.119C344.671 322.532 344.727 319.314 344.706 318.671C344.588 315.195 339.818 314.996 339.409 318.428C339.235 319.884 342.385 319.507 342.223 318.072C342.076 316.765 337.336 318.831 339.51 319.967C340.641 320.558 343.262 319.277 342.627 317.816C342.09 316.577 340.143 317.584 340.78 318.842C341.507 320.277 343.493 319.623 343.493 318.086C343.493 316.499 339.263 316.04 339.106 317.958C338.933 320.064 341.267 319.23 342.194 318.2C343.209 317.074 337.989 318.072 337.287 318.072C336.351 318.072 335.364 317.93 334.834 317.032C333.608 314.958 336.963 315.251 337.951 315.251C338.459 315.251 338.975 315.279 339.481 315.251C340.074 315.219 340.493 314.738 341.054 314.738C342.826 314.738 339.264 316.161 338.788 316.22C337.245 316.41 335.625 316.277 334.069 316.277C332.169 316.277 337.886 316.471 339.77 316.22C340.509 316.121 344.668 314.225 342.367 314.225C341.107 314.225 340.26 314.995 339.106 314.995C338.163 314.995 337.22 314.995 336.277 314.995C335.318 314.995 338.147 314.482 339.106 314.482C339.908 314.482 340.782 314.621 341.3 313.912C341.605 313.493 343.491 311.865 343.262 312.43C343.02 313.027 341.148 313.63 340.607 313.969C340.048 314.318 339.525 314.555 339.005 314.966C338.586 315.297 340.111 314.852 340.563 314.567C343.133 312.953 345.819 311.565 348.342 309.979C349.209 309.435 349.809 309.318 350.074 308.383C350.272 307.687 349.998 309.738 349.887 309.979C349.006 311.891 350.334 313.78 350.551 315.493C350.717 316.804 351.575 316.611 351.575 315.337C351.575 314.241 351.791 312.643 350.926 311.789C350.309 311.18 350.565 309.528 349.324 310.578C348.853 310.976 348.476 311.039 348.054 311.532C347.398 312.297 346.95 313.208 346.25 313.94C345.411 314.817 344.577 315.711 343.724 316.476C342.148 317.891 342.695 316.779 344.027 315.792C345.628 314.607 346.84 314.373 345.99 316.89C345.268 319.027 345.943 320.906 347.563 322.432C348.962 323.75 349.802 325.498 351.186 326.792C351.716 327.289 352.164 327.867 352.672 328.388C352.936 328.658 353.144 329.021 353.451 329.243C353.491 329.271 353.979 329.435 353.856 329.556C352.617 330.779 349.664 326.135 349.266 325.524C348.747 324.727 348.463 323.667 348.256 322.746C348.178 322.399 347.938 320.918 347.938 322.09C347.938 322.91 347.563 327.396 348.862 327.547C351.612 327.867 351.5 323.972 349.18 323.942C346.221 323.904 348.048 328.945 349.901 326.593C350.275 326.118 350.985 324.33 350.074 324.042C348.756 323.626 346.801 325.761 347.231 327.034C347.597 328.117 349.477 328.465 350.478 328.274C351.923 327.998 352.361 325.257 351.027 324.598C348.302 323.253 346.697 328.077 350.796 327.234C352.329 326.918 354.191 325.404 353.192 323.686C352.21 321.999 348.589 323.519 349.035 325.282C349.347 326.514 351.844 324.121 352.037 323.814C353.418 321.623 351.068 318.993 348.66 319.839C348.114 320.031 346.212 322.299 347.707 322.204C348.9 322.128 352.054 319.311 350.767 318.072C348.968 316.341 346.852 319.262 347.173 321.007C347.283 321.602 348.537 321.456 348.92 321.292C349.959 320.849 349.833 319.171 349.555 318.329C349.114 316.995 347.228 315.892 345.802 316.391C345.237 316.588 344.341 317.611 344.994 318.215C346.091 319.228 347.971 316.719 347.736 315.693C347.452 314.45 345.791 314.935 345.672 315.992C345.558 317.011 347.123 316.171 347.303 315.565C347.607 314.54 346.316 313.756 346.38 315.08C346.429 316.101 348.144 315.949 348.4 315.094C348.676 314.176 348.386 313.554 347.578 313.199C347.285 313.071 347.419 312.435 347.419 312.173C347.419 312.096 347.708 313.497 347.881 313.912C348.652 315.77 348.851 317.708 349.887 319.483C351.749 322.676 354.084 325.105 356.569 327.818C356.896 328.175 360.242 331.065 359.845 331.522C359.197 332.269 356.47 330.341 355.963 330.041C354.37 329.097 353.391 327.95 352.874 326.194C352.652 325.438 352.275 324.516 353.163 325.538C354.324 326.875 354.818 328.574 356.222 329.713C356.813 330.192 357.687 330.402 358.214 330.895C358.967 331.6 356.805 331.184 356.684 331.152C355.132 330.739 353.268 329.613 351.72 329.613C351.481 329.613 351.236 329.897 351.056 329.813C350.669 329.633 350.414 329.24 350.017 329.043C349.433 328.755 349.466 329.271 349.511 329.784C349.638 331.222 350.513 331.997 351.546 332.904C352.219 333.495 353.8 334.188 354.693 334.23C356.636 334.321 355.095 335.761 353.971 335.968C353.565 336.042 351.485 336.281 353.018 336.281C354.572 336.281 356.126 336.281 357.68 336.281C359.21 336.281 361.126 335.969 362.616 336.295C364.537 336.717 365.568 335.792 367.451 335.526C368.316 335.404 369.326 334.999 370.15 334.999C370.724 334.999 371.12 334.837 371.261 334.23C371.552 332.974 369.928 332.958 369.096 332.947C366.633 332.914 364.028 333.22 361.577 333.474C360.047 333.633 358.381 333.966 356.829 333.66C356.254 333.546 355.861 333.062 355.342 332.819C354.607 332.475 353.847 332.495 353.12 332.164C352.067 331.684 350.722 331.408 349.555 331.408C348.834 331.408 348.814 332.039 349.353 332.449C350.873 333.603 353.02 333.46 354.823 333.46C356.631 333.46 358.148 333.558 359.831 333.004C361.588 332.426 357.851 333.475 357.29 333.66C357.051 333.738 355.458 334.977 356.396 335.241C357.732 335.618 359.333 335.024 360.668 334.999C362.22 334.97 363.776 334.999 365.329 334.999C366.495 334.999 367.75 335.116 368.779 334.486C369.723 333.907 370.798 333.557 371.708 332.919C372.841 332.125 373.185 330.993 374.046 330.012C375.967 327.824 378.477 325.145 381.219 323.985C384.414 322.633 380.518 325.163 379.516 325.567C376.885 326.628 374.628 328.934 372.921 331.138C372.148 332.136 371.118 333.676 369.616 333.717C368.533 333.745 367.595 332.969 366.643 332.577C365.247 332.003 363.975 331.921 362.486 331.921C361.305 331.921 359.208 332.267 358.445 331.095C357.035 328.929 357.195 326.1 355.371 324.142C354.924 323.662 354.447 323.197 353.971 322.746C353.521 322.318 352.895 322.371 352.499 321.862C351.7 320.837 351.821 319.724 351.59 318.471C351.358 317.213 352.202 317.091 353.278 317.445C355.861 318.295 353.969 321.518 355.154 323.344C355.366 323.67 356.184 323.978 356.468 323.558C357.097 322.625 354.649 320.777 354.058 320.423C351.143 318.679 353.387 322.506 354.115 319.468C354.287 318.753 354.073 318.266 353.278 318.229C352.175 318.177 352.7 319.675 353.928 319.554C354.695 319.478 356.595 317.62 355.357 317.046C354.596 316.694 353.847 319.792 355.587 319.184C356.561 318.843 356.801 317.562 356.367 318.343C356.138 318.755 355.286 323.372 356.612 322.717C358.148 321.959 359.339 317.525 356.944 319.298C356.281 319.788 355.732 320.79 355.905 321.634C356.115 322.656 357.866 322.257 358.503 322.062C360.807 321.354 361.126 317.77 358.517 319.654C356.537 321.084 357.092 323.945 359.773 323.23C360.312 323.086 361.52 322.75 361.764 322.147C362.114 321.283 360.654 320.733 360.047 320.95C358.178 321.618 358.357 324.595 360.437 324.698C361.88 324.769 363.657 324.235 362.515 322.461C361.281 320.544 358.112 323.161 358.387 324.883C358.557 325.947 360.422 326.598 361.346 326.464C363.795 326.11 364.096 323.076 362.068 321.976C358.725 320.164 356.379 326.227 361.043 326.279C362.278 326.293 364.298 326.11 364.593 324.569C364.723 323.89 364.277 322.509 363.381 322.56C361.753 322.653 360.073 324.798 359.441 326.094C355.951 333.25 369.632 325.882 363.323 325.339C362.226 325.244 358.725 327.274 360.422 328.416C361.663 329.252 363.79 328.864 365.084 328.431C365.787 328.195 368.322 327.189 366.7 326.137C364.718 324.851 362.446 327.661 362.919 329.528C363.12 330.32 364.174 330.754 364.911 330.81C366.507 330.931 368.05 329.393 368.836 328.188C369.987 326.426 368.683 325.19 366.787 325.111C364.927 325.033 362.802 325.982 361.793 327.561C360.326 329.859 363.15 330.297 364.81 330.069C365.625 329.957 367.385 329.694 367.624 328.673C368.009 327.027 364.838 327.215 364.074 327.333C362.849 327.524 361.419 328.015 360.696 329.1C360.008 330.135 360.659 330.991 361.736 331.237C363.939 331.742 366.599 331.153 368.057 329.385C368.379 328.994 369.983 325.826 367.97 326.678C366.496 327.302 367.12 329.63 368.721 329.542C369.268 329.512 371.074 328.829 370.741 327.989C370.427 327.196 368.882 329.6 368.836 329.87C368.511 331.775 370.455 331.794 371.694 331.095C373.29 330.194 375.329 326.095 372.228 325.88C370.557 325.764 368.77 327.889 368.317 329.357C367.765 331.143 370.799 330.933 371.607 330.24C373.218 328.859 376.331 322.387 371.853 322.503C369.951 322.553 367.959 326.099 369.904 327.333C371.446 328.312 374.266 326.38 374.768 324.982C376.01 321.528 368.216 323.795 370.279 326.892C370.744 327.589 371.744 327.289 372.185 326.735C373.665 324.876 371.759 322.865 370.106 322.062C368.003 321.04 361.937 319.894 361.187 323.429C360.681 325.818 363.663 325.685 364.665 324.113C366.657 320.991 361.037 319.098 361.144 322.304C361.209 324.261 364.095 325.085 365.286 323.6C367.048 321.403 363.613 318.818 361.649 318.557C360.94 318.462 360.501 318.844 360.393 319.525C360.119 321.268 362.66 321.202 363.756 321.193C364.376 321.187 367.176 321.286 367.018 319.996C366.907 319.094 365.762 319.019 365.329 319.725C364.418 321.212 366.54 323.428 367.97 322.147C369.142 321.097 367.14 317.935 365.95 318.614C364.828 319.254 364.981 321.112 365.632 322.005C366.784 323.583 369.621 322.5 368.692 320.352C367.975 318.693 363.459 313.245 361.736 316.619C360.84 318.371 362.383 321.103 363.929 318.813C365.09 317.094 362.122 312.585 360.812 314.225C358.435 317.201 363.316 317.9 363.063 315.992C362.689 313.167 358.866 313.194 357.723 315.451C357.085 316.712 358.387 317.386 359.455 317.132C360.247 316.943 360.943 316.12 360.292 315.365C359.421 314.354 356.192 315.544 357.608 316.362C358.653 316.967 359.153 315.346 358.676 314.653C358.084 313.793 356.513 313.919 356.006 314.795C355.866 315.036 355.205 317.044 356.194 316.419C356.991 315.915 355.958 315.526 355.789 315.137C355.218 313.82 358.204 311.11 358.647 310.236C359.131 309.279 359.545 308.48 359.888 307.443C360.408 305.874 361.414 304.734 362.111 303.297C362.482 302.531 363.028 301.906 363.208 301.06C363.522 299.576 362.588 301.022 362.082 301.544C360.598 303.075 359.846 304.976 358.589 306.659C357.632 307.942 356.968 309.55 357.031 311.148C357.153 314.285 360.503 313.771 362.443 312.558C364.44 311.309 365.841 313.806 367.682 314.738C369.769 315.795 370.2 313.857 369.24 312.302C367.474 309.437 367.422 305.222 367.422 301.972C367.422 300.158 367.65 294.731 367.407 296.529C367.093 298.859 366.383 301.303 366.383 303.653C366.383 304.921 366.123 306.158 366.123 307.443C366.123 309.683 366.611 311.59 366.96 313.798C367.054 314.392 367.486 316.094 367.148 315.593C366.253 314.268 366.073 312.595 365.315 311.205C363.673 308.194 362.588 311.303 361.331 312.544C360.884 312.986 360.316 313.507 359.758 312.914C359.592 312.738 358.589 311.695 358.589 312.515C358.589 312.594 358.605 312.354 358.647 312.287C359.015 311.701 359.659 311.182 360.09 310.635C361.013 309.464 362.414 307.362 363.872 309.153C364.005 309.317 364.269 310.008 364.564 310.008C365.061 310.008 365.062 308.86 364.968 308.597C364.258 306.609 360.179 308.29 361.245 309.794C362.169 311.098 363.754 307.878 363.323 306.902C362.114 304.163 361.205 307.201 361.938 307.187C363.163 307.163 364.572 304.411 363.121 304.109C361.592 303.791 362.072 307.652 363.467 305.733C364.109 304.851 364.509 302.287 362.804 302.2C361.572 302.137 361.742 305.162 363.208 302.941C363.624 302.31 364.094 300.946 362.789 300.946C361.806 300.946 363.165 303.57 363.511 303.895C364.648 304.967 363.767 307.895 363.843 309.295C363.943 311.171 364.094 313.195 364.68 314.995C364.738 315.174 366.369 317.529 366.585 316.676C366.979 315.12 360.746 313.062 359.527 312.572C359.316 312.488 357.687 312.145 357.666 311.974C357.659 311.925 360.984 311.917 361.303 311.917C363 311.917 365.314 311.532 366.873 312.302C367.962 312.839 368.931 314.107 369.298 315.194C369.506 315.809 369.574 315.483 369.313 315.066C367.955 312.9 365.694 311.343 365.156 308.725C364.281 304.467 366.557 300.748 367.104 296.643C367.183 296.052 367.228 295.455 367.292 294.862C367.344 294.38 367.677 293.127 367.278 293.409C366.251 294.133 366.252 297.39 365.993 298.524C365.804 299.355 365.133 300.173 365.084 301.003C365.016 302.134 365.084 300.127 365.084 299.877C365.084 298.806 364.828 297.88 364.622 296.842C364.511 296.28 364.777 295.285 364.305 294.848C364.067 294.628 364.045 297.051 364.045 297.284C364.045 298.355 364.241 299.623 363.669 300.59C363.524 300.836 363.353 299.243 363.265 298.951C363.043 298.21 363.006 297.551 363.006 296.786C363.006 295.941 363.006 300.915 363.006 298.51C363.006 296.909 363.392 294.305 362.226 292.939C361.963 292.63 361.925 292.156 361.577 291.927C361.047 291.578 361.679 291.795 361.822 292.582C361.939 293.223 361.542 296.529 362.746 296.529C363.291 296.529 362.976 292.698 363.006 291.97C363.043 291.038 365.226 292.426 365.733 292.426C367.174 292.426 368.634 292.726 369.846 291.913C370.137 291.717 370.222 291.589 370.294 291.271C370.336 291.084 370.896 290.67 370.886 290.673C369.442 291.08 368.156 293.723 367.739 295.047C367.199 296.765 366.303 293.978 365.43 293.323C364.818 292.864 363.391 292.238 363.063 293.337C362.902 293.88 363.308 294.38 363.785 293.964C364.114 293.678 364.587 294.183 365.069 294.064C366.148 293.798 365.874 293.63 365.632 294.705C365.505 295.269 365.85 295.896 365.863 296.472C365.889 297.622 365.974 298.569 366.267 299.692C366.695 301.328 366.574 303.137 367.032 304.764C367.785 307.439 366.355 311.81 368.057 314.211C368.53 314.878 369.028 314.945 369.442 315.764C369.572 316.021 369.657 316.396 369.76 316.676C370.093 317.58 369.17 316.768 368.519 316.947C367.956 317.101 368.687 317.528 369.096 317.018C370.062 315.812 369.279 314.985 369.24 316.619C369.218 317.559 370.738 317.34 371.391 317.289C371.733 317.261 373.643 316.34 372.574 316.106C371.205 315.806 371.656 319.76 373.238 317.787C373.845 317.03 373.63 315.529 372.358 315.935C371.955 316.063 370.622 317.156 371.636 317.502C373.154 318.021 373.996 314.738 371.593 314.738C371.494 314.738 370.276 314.647 370.539 315.08C370.736 315.403 371.106 314.574 371.405 314.339C371.827 314.008 372.281 313.75 372.762 313.513C373.916 312.943 375.084 312.41 375.749 311.262C376.187 310.505 376.878 308.081 376.254 308.697C375.228 309.71 375.34 312.363 374.696 313.726C374.112 314.961 373.355 316.373 372.242 317.246C371.638 317.72 370.106 319.253 371.694 319.668C374.34 320.36 373.742 316.579 372.127 317.232C371.334 317.552 371.083 318.652 371.809 319.184C372.329 319.564 375.173 319.584 374.378 318.443C373.794 317.604 372.555 322.347 374.912 320.252C375.544 319.69 374.84 319.55 374.407 320.323C373.823 321.366 374.969 322.398 375.937 322.632C376.66 322.806 377.407 322.517 377.51 321.705C377.569 321.237 376.283 322.626 376.283 323.187C376.283 323.948 377.504 323.548 377.553 322.945C377.622 322.114 377.034 320.839 376.11 321.777C375.531 322.364 375.011 323.912 375.36 324.698C375.659 325.374 376.744 324.849 377.005 324.398C377.092 324.248 375.068 326.507 375.879 326.507C376.53 326.507 376.695 325.184 376.716 324.797C376.816 323.009 374.359 324.023 374.292 325.31C374.205 326.967 376.275 324.967 376.774 324.598C378.067 323.64 379.107 322.432 380.815 322.432C382.258 322.432 383.701 322.432 385.145 322.432C387.23 322.432 381.018 321.813 378.939 321.648C378.506 321.614 376.584 321.478 376.514 320.893C376.458 320.424 379.286 320.637 379.632 320.637C381.091 320.637 386.182 321.542 382.056 320.637C379.715 320.123 375.032 319.21 374.494 316.391C373.87 313.13 377.467 318.195 377.929 318.542C379.946 320.059 381.675 316.503 379.545 315.109C378.542 314.452 375.562 313.779 375.562 315.792C375.562 317.867 377.762 318.112 378.997 316.918C380.068 315.882 381.793 313.472 380.151 312.145C379.252 311.418 376.87 313.357 377.813 314.111C379.108 315.146 379.775 311.977 379.689 311.361C379.386 309.177 376.64 312.098 377.048 313.442C377.346 314.422 378.541 314.071 379.054 313.456C379.824 312.533 378.812 312.961 378.65 314.254C378.183 317.988 380.483 314.124 379.458 312.929C379.037 312.437 377.671 314.61 378.275 315.337C378.861 316.041 379.528 313.967 379.516 313.684C379.456 312.236 377.703 314.886 377.625 315.422C377.609 315.539 377.532 316.472 377.986 315.992C378.958 314.966 379.274 313.26 379.17 311.917C379.122 311.306 378.869 309.435 377.986 309.224C377.288 309.058 377.193 310.565 377.366 310.92C377.897 312.013 379.395 310.092 379.011 309.295C378.56 308.361 376.862 309.783 377.929 310.264C379.38 310.919 379.775 307.982 378.708 307.272C377.646 306.566 377.424 309.283 377.842 309.224C378.812 309.087 378.249 306.277 377.048 306.944C376.263 307.381 377.573 307.09 377.755 306.189C377.908 305.437 376.562 305.069 377.236 305.192C377.839 305.302 378.9 304.328 378.333 303.767C377.895 303.335 379.217 305.05 379.069 303.81C379.029 303.477 378.268 302.181 377.813 302.798C377.377 303.39 378.189 305.312 379.054 304.622C379.715 304.095 379.277 302.627 378.362 302.727C377.395 302.833 378.01 306.178 378.722 305.961C379.38 305.762 379.389 304.564 378.65 304.479C378.404 304.451 377.736 304.747 378.232 304.964C378.766 305.198 379.529 304.337 378.997 303.91C377.534 302.736 377.967 305.179 378.333 305.847C378.828 306.752 379.674 306.771 380.339 305.919C380.671 305.492 379.749 305.699 379.516 306.389C379.321 306.967 379.131 308.25 379.805 308.583C380.216 308.786 381.949 308.59 381.912 308.782C381.709 309.823 381.621 310.888 381.724 311.96C381.783 312.567 382.489 312.416 382.489 313.214C382.489 315.546 382.489 317.877 382.489 320.209C382.489 320.817 382.489 321.425 382.489 322.033C382.489 322.836 381.998 319.729 381.984 319.625C381.31 314.799 381.71 309.777 381.71 304.907C381.71 303.34 382.147 306.573 382.215 306.916C382.476 308.224 382.489 309.483 382.489 310.806C382.489 312.711 382.375 314.654 382.633 316.548C382.755 317.441 382.681 319.259 383.398 319.967C384.058 320.618 384.475 318.745 384.51 318.528C385.05 315.167 384.281 311.662 384.308 308.269C384.315 307.305 384.397 303.912 384.697 306.759C384.857 308.275 384.827 309.781 384.827 311.304C384.827 313.744 384.184 317.132 384.943 319.468C385.011 319.68 385.521 321.445 385.751 321.477C386.244 321.547 386.129 314.412 386.112 313.655C386.035 310.337 385.595 307.049 385.404 303.739C385.325 302.363 385.347 300.984 385.347 299.607C385.347 299.34 385.347 298.181 385.347 299.236C385.347 303.005 385.246 306.786 385.073 310.549C384.957 313.067 384.057 308 383.99 307.671C383.439 304.962 382.955 302.278 382.547 299.55C382.31 297.965 382.229 299.786 382.229 300.348C382.229 302.139 382.137 303.958 382.244 305.748C382.249 305.837 382.287 306.905 382.662 306.246C383.47 304.827 383.643 302.877 383.73 301.288C383.763 300.696 383.895 299.284 383.124 298.951C382.587 298.719 382.749 301.03 382.749 301.06C382.747 301.383 382.739 305.687 382.864 304.237C383.089 301.65 380.419 300.563 379.733 303.411C379.651 303.75 380.131 305.751 380.555 304.764C380.844 304.093 380.9 300.846 379.689 300.889C378.818 300.92 379.039 302.856 379.126 302.784C379.956 302.101 379.106 299.162 378.376 300.063C377.86 300.699 378.877 301.924 378.852 300.775C378.828 299.665 377.919 300.183 378.131 301.06C378.421 302.263 378.852 301.647 378.852 300.775C378.852 299.723 378.154 298.307 377.871 300.191C377.668 301.543 379.443 300.032 379.574 299.208C379.707 298.367 379.17 297.156 379.17 298.467C379.17 300.02 380.157 299.012 379.978 297.84C379.744 296.308 377.465 297.531 378.592 298.609C379.305 299.291 379.884 296.878 379.213 296.216C377.695 294.717 378.711 298.679 379.675 297.142C379.805 296.934 379.741 296.448 379.689 296.928C379.601 297.738 379.642 298.671 379.949 299.436C380.563 300.962 381.993 299.319 381.912 298.267C381.735 295.968 380.018 297.063 380.959 298.324C381.696 299.311 382.851 295.499 381.118 296.002C380.184 296.273 381.011 298.458 381.652 298.723C383.599 299.528 381.976 295.746 381.623 295.361C380.525 294.16 379.295 297.253 380.801 297.612C382.417 297.997 381.885 295.391 381.017 294.848C379.439 293.86 379.224 296.132 379.862 295.988C381.664 295.58 380.449 292.773 379.372 293.793C378.372 294.74 379.44 295.924 379.718 294.905C379.818 294.537 379.56 291.983 378.91 293.053C378.191 294.235 380.526 294.644 380.829 293.095C381.133 291.547 378.992 292.304 379.92 293.024C380.73 293.653 380.716 291.651 380.007 291.257C379.281 290.854 380.282 293.295 380.873 291.97C381.166 291.313 380.011 290.816 379.574 290.659C379.346 290.577 380.251 290.618 380.281 290.616C380.932 290.572 381.161 290.382 381.161 289.718C381.161 288.851 381.112 288.413 381.825 287.809C382.02 287.644 382.32 287.553 382.576 287.553C382.933 287.553 381.897 287.793 381.594 287.98C381.153 288.253 377.668 290.359 378.679 291.357C380.152 292.812 382.825 288.319 383.471 288.892C383.688 289.086 383.466 289.709 383.543 289.975C383.58 290.105 383.34 289.191 383.009 288.864C380.515 286.402 382.053 290.258 382.201 291.642C382.399 293.505 382.327 295.142 382.864 296.985C383.242 298.281 383.715 299.534 384.048 300.846C384.394 302.212 385.067 298.663 385.073 298.495C385.134 296.586 384.744 294.863 384.163 293.053C383.925 292.31 383.528 290.022 383.528 290.801C383.528 291.791 383.973 291.077 383.904 290.388C383.863 289.99 383.833 289.464 383.629 289.106C383.519 288.912 382.957 288.607 383.182 288.607C384.279 288.607 386.422 290.922 387.107 291.599C388.525 292.999 389.895 293.809 391.841 294.349C393.145 294.711 394.439 294.761 394.439 296.216C394.439 297.278 394.023 299.222 394.829 300.105C396.414 301.844 395.724 296.875 395.536 296.13C395.478 295.901 395.128 295.167 394.843 295.688C394.526 296.27 395.19 298.301 395.19 297.64C395.19 296.295 391.214 295.536 390.138 294.99C388.759 294.29 387.39 293.407 386.112 292.54C384.441 291.405 383.475 292.699 384.827 294.306C385.91 295.593 387.97 295.913 389.272 297.056C390.075 297.76 391.15 298.242 392.101 298.723C392.723 299.038 393.418 299.836 394.122 299.863C394.867 299.891 393.337 297.745 393.14 297.498C392.552 296.762 391.259 295.978 390.311 296.586C389.623 297.028 391.077 298.484 390.99 297.013C390.861 294.848 388.214 296.501 388.522 298.225C388.717 299.316 389.762 298.374 388.868 297.754C387.142 296.557 385.009 298.839 386.501 299.749C389.561 301.615 386.888 293.48 385.794 296.216C385.182 297.746 385.647 300.53 387.771 300.205C389.045 300.01 387.287 297.666 387.021 300.205C386.924 301.134 387.087 302.071 387.714 302.798C387.876 302.986 388.883 303.822 388.94 303.083C389.13 300.648 386.16 299.883 385.953 302.641C385.792 304.783 388.553 304.198 389.07 302.684C390.1 299.67 385.871 302.825 387.512 303.34C389.747 304.04 390.488 300.059 388.998 299.25C388.446 298.951 388.458 300.846 388.594 301.074C388.965 301.697 390.072 301.964 390.701 301.601C391.657 301.051 390.646 299.4 389.965 300.889C389.457 302 392.064 302.866 391.856 301.017C391.649 299.177 389.641 300.366 391.235 301.63C393.033 303.055 392.918 300.82 392.043 301.345C391.681 301.562 390.445 304.138 391.293 304.138C391.757 304.138 390.463 303.521 390.008 303.61C389.227 303.765 388.105 304.759 388.464 305.662C388.975 306.947 391.418 305.806 391.812 304.992C392.686 303.189 387.597 303.075 389.215 305.847C389.856 306.945 391.696 305.237 390.326 304.408C388.341 303.207 386.249 307.08 387.714 308.526C388.938 309.735 390.546 307.777 389.186 307.329C386.931 306.587 387.663 310.821 389.186 309.837C390.814 308.784 388.697 307.243 388.046 309.495C387.667 310.802 388.07 312.454 389.215 313.271C390.006 313.835 389.53 312.284 388.349 312.202C387.251 312.126 387.515 314.492 388.378 314.824C390.204 315.527 390.665 313.591 389.316 312.558C387.007 310.79 387.263 315.174 387.685 316.305C388.32 318.011 388.471 316.388 388.204 316.434C387.168 316.612 386.211 318.226 386.054 319.141C385.899 320.043 386.511 320.502 386.992 321.136C388.306 322.866 386.42 323.948 384.827 323.971C382.864 323.999 382.419 325.029 381.19 326.393C379.647 328.107 378.301 329.933 376.63 331.551C376.215 331.952 373.697 333.76 374.71 334.343C376.567 335.413 376.635 330.75 376.716 329.955C376.821 328.931 376.267 329.161 376.803 329.727C377.635 330.607 380.119 331.026 381.133 330.311C382.345 329.456 380.835 327.084 380.267 328.416C378.921 331.571 383.652 328.397 382.778 326.707C382.268 325.72 381.004 328.356 382.417 328.459C384.322 328.598 385.309 325.195 385.174 323.857C385.095 323.082 384.724 325.39 386.386 324.826C388.235 324.198 387.91 320.122 387.136 320.551C386.922 320.671 386.853 321.044 386.949 321.249C387.263 321.921 387.969 320.079 388.118 319.354C388.179 319.053 388.746 315.479 387.757 315.479C387.447 315.479 387.937 316.945 388.45 317.004C389.466 317.119 389.742 314.143 389.763 313.513C389.812 312.041 389.562 313.81 390.052 313.684C391.92 313.201 391.996 309.584 392.058 308.155C392.128 306.528 391.78 309.664 392.13 308.455C392.443 307.372 393.146 305.887 392.823 304.736C392.354 303.071 392.106 305.688 392.101 306.075C392.073 308.253 390.382 310.644 389.532 312.658C389.484 312.772 389.485 313.127 389.561 313.028C390.422 311.916 390.694 310.076 391.062 308.782C391.828 306.085 392.38 303.27 393.299 300.618C393.402 300.322 394.222 298.058 394.757 298.438C396.005 299.326 395.39 303.291 395.276 304.593C394.975 308.031 395.738 311.332 395.738 314.738C395.738 317.415 395.593 309.364 395.103 306.731C394.912 305.703 394.327 304.728 394.179 303.71C393.53 299.225 394.179 312.772 394.179 317.303C394.179 318.741 394.485 320.434 393.645 321.677C393.294 322.197 391.216 326.801 390.023 325.396C388.824 323.983 390.3 319.317 391.322 317.987C391.809 317.353 393.226 316.667 393.082 318.044C392.909 319.711 391.7 321.101 390.384 322.076C389.329 322.857 390.142 320.995 390.297 320.509C391.803 315.768 392.014 322.753 390.802 322.717C389.415 322.676 391.228 317.387 391.423 316.904C392.363 314.568 392.331 318.273 391.711 318.884C391.381 319.21 391.28 315.165 391.379 314.51C391.58 313.184 392.226 314.768 392.476 314.938C393.373 315.546 393.14 313.241 393.14 312.872C393.14 311.501 393.465 309.736 393.126 308.398C392.865 307.367 392.837 310.514 392.88 311.575C392.968 313.739 394.211 312.228 394.439 311.034C394.972 308.25 394.536 305.142 395.594 302.456C395.769 302.011 395.8 300.975 395.94 302.171C396.094 303.48 395.998 304.831 395.998 306.147C395.998 308.051 395.998 309.956 395.998 311.86C395.998 316.358 394.691 320.965 392.216 324.74C391.961 325.13 391.665 325.803 391.596 326.279C391.505 326.906 391.332 326.528 391.076 326.906C391.059 326.931 390.816 326.399 390.802 326.279C390.737 325.732 388.929 324.945 388.493 324.712C387.432 324.144 388.143 326.142 388.363 326.507C388.408 326.581 389.479 327.617 389.46 327.433C389.361 326.453 387.62 326.68 387.18 327.177C386.701 327.717 386.423 329.761 387.771 329.3C388.283 329.125 387.868 326.638 386.617 328.53C386.207 329.15 385.972 330.022 386.169 330.753C386.427 331.707 386.565 330.103 386.53 329.955C385.821 326.978 382.392 329.123 383.225 331.537C383.832 333.295 385.647 330.456 383.932 330.212C382.829 330.055 381.36 330.639 381.104 331.807C381.046 332.07 381.157 333.315 381.768 332.919C383.012 332.111 381.099 330.125 380.036 330.824C379.376 331.259 378.717 332.789 379.069 333.546C379.188 333.803 379.997 333.753 379.862 333.503C378.775 331.475 376.431 333.754 377.813 334.258C379.06 334.713 378.851 331.151 377.294 332.092C376.348 332.664 376.874 335.613 377.914 334.586C379.177 333.339 374.641 333.856 376.168 335.54C376.859 336.303 377.846 334.426 377.178 333.973C375.997 333.171 375.245 335.059 376.341 335.654C377.135 336.085 378.148 335.107 378.362 334.415C378.507 333.942 377.92 333.983 377.885 334.443C377.851 334.895 378.108 336.089 378.78 335.982C380.571 335.697 381.047 332.268 378.65 334.514C378.528 334.629 377.665 335.83 378.564 335.54C379.296 335.304 379.475 334.758 379.891 334.23" stroke="black" stroke-width="5" stroke-linecap="round" stroke-linejoin="round"/>
<path d="M379.901 334.433C378.725 334.479 376.053 334.724 375.823 336.236C375.735 336.816 375.679 337.884 376.436 338.054C377.246 338.236 378.193 337.852 378.989 338.082C380.141 338.415 377.475 341.436 377.491 341.444C378.724 341.998 379.375 343.205 379.003 344.56C378.613 345.98 379.393 346.467 379.117 344.935C378.803 343.185 377.868 341.484 377.605 339.756C377.48 338.935 378.168 339.107 378.746 339.107C379.499 339.107 379.312 339.738 379.516 340.275C379.839 341.124 379.234 342.617 380.03 343.261C380.087 343.307 380.518 345.945 380.942 344.444C380.943 344.441 381.744 343.547 381.841 343.42C382.125 343.05 382.754 342.713 383.11 342.352C385.349 340.088 388.479 338.973 391.211 337.419C392.302 336.798 393.389 336.313 394.405 335.601C395.42 334.89 397.174 334.329 397.985 333.51C399.042 332.44 398.411 331.598 397.999 330.264C397.546 328.797 397.871 326.884 397.871 325.345C397.871 319.372 397.871 313.4 397.871 307.428C397.871 306.287 397.866 305.263 397.628 304.182C397.569 303.911 396.743 300.644 396.601 302.148C396.095 307.521 396.53 312.947 396.088 318.319C395.852 321.185 396.074 324.153 396.074 327.032C396.074 327.841 396.233 328.841 396.059 329.629C395.746 331.055 395.748 330.722 396.958 331.072C397.23 331.15 397.1 331.996 397.1 332.226C397.1 332.944 396.952 332.809 396.316 332.889C395.254 333.024 394.755 333.844 393.778 334.173C392.249 334.688 390.628 336.388 389.271 337.303C388.237 338.001 387.378 338.608 386.119 339.049C385.565 339.243 383.949 339.919 383.695 340.405C383.242 341.27 382.424 340.96 381.755 341.501C380.882 342.208 380.762 342.316 380.472 341.069C380.113 339.525 380.415 337.57 380.415 335.991C380.415 333.211 380.895 335.501 380.928 336.972C380.96 338.372 382.212 339.403 382.212 340.665C382.212 341.616 382.159 339.124 382.269 338.789C382.585 337.829 383.744 337.892 384.522 337.491C385.878 336.792 387.321 336.064 388.629 335.269C389.619 334.669 390.656 334.137 391.51 333.336C392.136 332.75 392.709 332.873 393.25 332.154C393.476 331.852 394.258 331.306 394.59 331.057C395.279 330.542 393.417 332.187 393.107 332.413C391.683 333.454 389.819 334.668 388.23 335.471C386.684 336.253 385.385 337.44 383.695 338.01C382.183 338.52 381.789 337.239 381.499 335.991C381.116 334.345 381.94 331.836 383.809 331.836C385.916 331.836 385.806 334.102 385.806 335.673C385.806 337.612 384.091 336.201 382.782 336.25C382.083 336.277 382.013 337.062 382.839 337.029C384.328 336.971 385.401 335.41 384.978 333.913C384.841 333.427 384.182 333.47 383.923 333.827C383.617 334.25 383.726 335.121 383.752 335.616C383.831 337.09 386.591 335.155 386.775 334.317C387.281 332.017 383.686 332.947 382.839 333.971C381.62 335.446 382.923 336.689 384.436 335.818C387.668 333.956 387.67 329.493 383.923 328.23C381.924 327.556 379.772 327.762 377.705 327.667C377.137 327.641 376.728 327.543 376.308 327.162C374.446 325.478 373.873 321.017 370.774 320.93C370.281 320.917 369.155 321.158 369.12 320.411C369.08 319.57 368.975 318.581 369.377 317.814C370.646 315.39 372.314 318.401 373.028 319.372C373.984 320.675 374.983 319.711 376.051 318.997C376.509 318.691 376.918 318.436 377.42 318.218C377.456 318.203 377.017 318.827 376.935 318.997C376.123 320.686 376.571 321.549 378.418 321.652C380.321 321.757 382.086 321.682 383.852 320.93C384.464 320.67 386.118 319.53 385.577 319.921C384.825 320.464 384.479 322.844 385.035 323.614C385.625 324.43 388.157 323.415 388.715 323.008C389.209 322.647 388.97 322.775 388.886 323.325C388.766 324.114 388.643 324.92 388.629 325.72C388.62 326.223 389.102 328.658 389.599 326.96C390.022 325.518 386.605 325.509 385.948 325.893C385.487 326.162 383.583 327.831 384.95 328.345C386.362 328.877 387.959 327.365 388.458 326.181C388.818 325.328 387.963 323.982 387.004 324.681C386.584 324.987 386.895 325.503 387.389 325.272C388.631 324.692 389.277 322.963 389.628 321.738C389.992 320.466 389.934 316.763 387.602 317.353C386.613 317.603 387.108 319.13 388.23 318.738C389.14 318.419 390.08 315.98 389.2 316.314C388.783 316.472 388.672 318.107 389.057 318.319C390.008 318.844 390.931 318.103 391.824 318.103C392.276 318.103 390.582 323.457 390.284 324.32C389.519 326.531 388.373 328.046 388.373 330.394C388.373 331.262 388.836 332.554 389.784 332.341C390.126 332.264 391.318 331.603 390.269 331.879C389.89 331.979 388.002 332.991 387.888 333.394C387.44 334.979 390.373 332.619 388.016 333.149C387.125 333.349 389.747 332.44 390.412 331.807C391.906 330.385 392.709 327.474 390.783 325.965C388.327 324.042 386.063 329.58 388.529 329.211C389.672 329.039 391.168 328.159 391.168 326.816C391.168 326.531 390.94 327.879 390.94 328.186C390.94 330.802 393.848 326.954 392.708 325.143C391.636 323.439 388.722 328.205 390.198 329.485C390.467 329.718 392.056 329.911 391.924 329.24C391.749 328.355 389.913 329.97 389.799 330.509C389.593 331.48 391.439 329.927 391.567 329.73C391.826 329.33 393.64 326.023 392.836 325.662C392.5 325.511 391.193 329.333 393.364 328.706C393.564 328.648 393.041 329.059 393.278 329.6C393.641 330.425 394.298 329.024 394.391 328.85C395.641 326.501 391.161 330.249 393.136 330.249C394.255 330.249 394.476 327.909 394.476 327.162C394.476 326.387 393.508 323.698 392.48 325.258C391.933 326.088 391.989 328.022 393.25 326.888C393.953 326.256 394.613 324.231 393.507 323.671C392.683 323.255 392.996 324.937 393.649 325.157C395.036 325.625 394.919 322.871 394.505 322.272C393.83 321.296 392.137 321.275 391.981 322.618C391.856 323.693 393.028 324.363 393.763 323.513C394.28 322.915 394.926 321.645 394.234 320.945C393.75 320.455 392.302 319.32 391.838 320.31C390.769 322.592 393.596 323.39 393.992 321.089C394.268 319.48 390.914 315.756 390.697 318.824C390.623 319.872 391.164 320.599 392.237 320.382C392.775 320.274 394.665 319.477 393.564 318.853C390.32 317.016 387.78 320.546 386.676 323.152C385.735 325.371 382.736 325.08 380.786 325.474C378.861 325.864 376.688 325.604 374.739 325.604C371.152 325.604 367.633 325.678 364.057 325.979C362.846 326.081 361.367 325.888 360.192 326.239C359.434 326.466 359.446 326.943 360.15 327.162C362.032 327.748 363.962 327.916 365.783 328.735C367.691 329.593 369.708 331.235 371.687 331.807C372.708 332.102 371.889 332.596 371.131 332.731C369.598 333.002 367.99 332.875 366.439 332.875C365.129 332.875 365.463 332.941 366.61 332.471C367.736 332.01 368.933 331.845 370.061 331.403C371.034 331.022 371.802 330.339 372.728 329.918C372.914 329.833 374.798 329.257 373.655 329.24C371.321 329.203 369.015 329.332 366.724 328.778C364.748 328.3 367.888 326.373 368.464 326.124C369.611 325.626 370.751 325.099 371.901 324.609C372.393 324.399 373.175 324.359 373.569 323.96C374.093 323.43 372.149 324.384 371.43 324.566C370.358 324.837 369.282 325.084 368.207 325.345C366.897 325.662 365.497 325.674 367.551 324.739C367.819 324.617 370.451 323.277 369.405 322.748C368.212 322.144 366.361 322.268 365.64 323.469C364.118 326.006 372.692 322.693 366.125 325.143C362.955 326.325 359.84 327.798 356.998 329.643C355.178 330.825 353.084 331.593 350.951 331.894C347.626 332.362 344.251 333.178 340.883 332.673C339.335 332.441 337.572 332.527 336.005 332.615C335.133 332.664 335.492 332.024 335.492 331.057C335.492 329.168 335.667 328.292 336.519 326.643C337.7 324.356 338.771 322.25 339.656 319.834C340.779 316.767 343.801 315.694 345.703 313.342C346.05 312.913 345.856 313.58 346.273 314.237C346.785 315.041 347.5 315.319 348.327 315.737C350.136 316.652 352.68 316.302 354.688 316.256C355.572 316.237 356.028 315.477 356.798 315.477C357.22 315.477 357.849 315.454 357.312 315.997C355.582 317.746 353.194 317.829 350.98 318.449C347.7 319.368 344.89 319.632 341.482 319.632C340.025 319.632 338.855 319.515 337.546 318.853C336.797 318.475 336.431 317.698 335.749 317.353C335.264 317.108 333.723 317.005 333.182 317.035C331.963 317.104 332.155 319.342 332.155 320.151C332.155 322.489 330.358 324.595 330.358 326.903C330.358 327.878 328.63 332.355 330.358 332.355C339.08 332.355 347.774 332.875 356.484 332.875C358.987 332.875 361.952 332.445 364.414 332.933C366.438 333.333 368.269 333.394 370.346 333.394C372.294 333.394 374.328 332.993 376.308 332.875C377.639 332.796 380.015 329.24 377.591 329.24" stroke="black" stroke-width="5" stroke-linecap="round" stroke-linejoin="round"/>
<line x1="320" y1="417" x2="385.273" y2="417" stroke="black" stroke-width="2"/>
<line x1="320" y1="439.012" x2="385.273" y2="439.012" stroke="black" stroke-width="2"/>
</svg>
