<svg width="610" height="610" viewBox="0 0 610 610" fill="none" xmlns="http://www.w3.org/2000/svg">
<rect width="610" height="610" fill="#FFE600"/>
<rect x="203" y="107" width="248" height="468" rx="30" fill="#E8B500"/>
<rect x="160" y="37" width="249" height="507" rx="30" fill="black"/>
<rect x="170" y="87" width="229" height="405" fill="white"/>
<rect x="183" y="138" width="204" height="22" rx="11" fill="#F8F8F8"/>
<rect x="183" y="170" width="171" height="73" rx="15" fill="#F8F8F8"/>
<rect x="183" y="249" width="171" height="73" rx="15" fill="#F8F8F8"/>
<rect x="183" y="328" width="171" height="73" rx="15" fill="#F8F8F8"/>
<rect x="183" y="407" width="171" height="73" rx="15" fill="#F8F8F8"/>
<path d="M178.77 120H191.805V116.45H183.075V99.6364H178.77V120ZM211.831 106.766C211.264 102.062 207.705 99.358 202.991 99.358C197.612 99.358 193.506 103.156 193.506 109.818C193.506 116.46 197.543 120.278 202.991 120.278C208.212 120.278 211.364 116.808 211.831 113.06L207.476 113.04C207.068 115.217 205.358 116.47 203.061 116.47C199.969 116.47 197.871 114.173 197.871 109.818C197.871 105.582 199.939 103.166 203.091 103.166C205.447 103.166 207.148 104.528 207.476 106.766H211.831ZM214.918 120H223.619C228.192 120 230.629 117.614 230.629 114.372C230.629 111.359 228.471 109.54 226.154 109.43V109.232C228.272 108.754 229.833 107.253 229.833 104.857C229.833 101.804 227.566 99.6364 223.072 99.6364H214.918V120ZM219.224 116.48V111.071H222.833C224.901 111.071 226.184 112.264 226.184 113.945C226.184 115.476 225.14 116.48 222.734 116.48H219.224ZM219.224 108.158V103.116H222.495C224.404 103.116 225.488 104.101 225.488 105.572C225.488 107.183 224.175 108.158 222.415 108.158H219.224ZM252.143 109.818C252.143 103.156 248.007 99.358 242.608 99.358C237.179 99.358 233.072 103.156 233.072 109.818C233.072 116.45 237.179 120.278 242.608 120.278C248.007 120.278 252.143 116.48 252.143 109.818ZM247.778 109.818C247.778 114.134 245.73 116.47 242.608 116.47C239.475 116.47 237.437 114.134 237.437 109.818C237.437 105.503 239.475 103.166 242.608 103.166C245.73 103.166 247.778 105.503 247.778 109.818Z" fill="black"/>
<rect x="202" y="202" width="17" height="26" fill="#DDDDDD"/>
<ellipse cx="208.5" cy="202.5" rx="6.5" ry="8.5" fill="#DDDDDD"/>
<ellipse cx="212.5" cy="202.5" rx="6.5" ry="8.5" fill="#DDDDDD"/>
<rect x="208" y="185" width="5" height="11" fill="#DDDDDD"/>
<rect x="202" y="285" width="17" height="26" fill="#DDDDDD"/>
<ellipse cx="208.5" cy="285.5" rx="6.5" ry="8.5" fill="#DDDDDD"/>
<ellipse cx="212.5" cy="285.5" rx="6.5" ry="8.5" fill="#DDDDDD"/>
<rect x="208" y="268" width="5" height="11" fill="#DDDDDD"/>
<rect x="202" y="360" width="17" height="26" fill="#DDDDDD"/>
<ellipse cx="208.5" cy="360.5" rx="6.5" ry="8.5" fill="#DDDDDD"/>
<ellipse cx="212.5" cy="360.5" rx="6.5" ry="8.5" fill="#DDDDDD"/>
<rect x="208" y="343" width="5" height="11" fill="#DDDDDD"/>
<rect x="202" y="439" width="17" height="26" fill="#DDDDDD"/>
<ellipse cx="208.5" cy="439.5" rx="6.5" ry="8.5" fill="#DDDDDD"/>
<ellipse cx="212.5" cy="439.5" rx="6.5" ry="8.5" fill="#DDDDDD"/>
<rect x="208" y="422" width="5" height="11" fill="#DDDDDD"/>
<circle cx="373.5" cy="206.5" r="13.5" fill="black"/>
<circle cx="373.5" cy="443.5" r="13.5" fill="black"/>
<circle cx="373.5" cy="364.5" r="13.5" fill="black"/>
<circle cx="373.5" cy="289.5" r="13.5" fill="black"/>
</svg>
