<svg width="610" height="610" viewBox="0 0 610 610" fill="none" xmlns="http://www.w3.org/2000/svg">
<rect width="610" height="610" fill="#5A74B7"/>
<rect x="103" y="179" width="451" height="309" rx="30" fill="#3C4C75"/>
<path d="M55 151C55 134.431 68.4315 121 85 121H490C506.569 121 520 134.431 520 151V428C520 444.569 506.569 458 490 458H85C68.4315 458 55 444.569 55 428V151Z" fill="#E7E7E7"/>
<path d="M55 153.575C55 135.584 69.5586 121 87.5175 121H487.483C505.441 121 520 135.584 520 153.575V425.425C520 443.416 505.441 458 487.483 458H87.5175C69.5586 458 55 443.416 55 425.425V153.575Z" fill="#E7E7E7"/>
<rect x="69.0664" y="158.416" width="436" height="276" fill="white"/>
<rect x="103" y="178" width="63" height="26" rx="13" fill="#9074A6"/>
<rect x="266.309" y="227.072" width="139.687" height="156.887" fill="#D5EBFF"/>
<rect x="155.766" y="227.072" width="110.544" height="156.887" fill="#E2BDFF"/>
<path d="M281.383 278.101L309.329 251.844C331.18 255.876 342.348 257.202 359.633 257.287L355.907 262.091V277.461L368.327 288.989V314.926L379.816 325.173L387.89 321.33L391.926 328.055L377.953 343.425H373.917L368.327 346.627V352.391H359.633C357.052 352.004 354.165 353.166 345.97 358.155C350.583 348.734 354.088 343.214 353.423 335.1C353.423 335.1 355.907 332.858 359.633 335.1C363.359 337.341 355.907 325.173 355.907 325.173H344.107L337.276 306.921C330.886 305.909 327.554 305.951 322.06 306.921L309.329 317.808L281.383 306.921V278.101Z" fill="#DEFFE1"/>
</svg>
