<svg width="607" height="591" viewBox="0 0 607 591" fill="none" xmlns="http://www.w3.org/2000/svg">
<rect width="607" height="591" fill="#FFC7C7"/>
<rect x="105" y="174" width="451" height="309" rx="30" fill="#835797"/>
<rect x="105" y="174" width="451" height="309" rx="30" fill="#EE8B8B"/>
<path d="M57 146C57 129.431 70.4315 116 87 116H491.796C508.365 116 521.796 129.431 521.796 146V422.255C521.796 438.824 508.365 452.255 491.796 452.255H87C70.4315 452.255 57 438.824 57 422.255V146Z" fill="#E7E7E7"/>
<path d="M57 148.503C57 130.552 71.5522 116 89.5032 116H489.293C507.244 116 521.796 130.552 521.796 148.503V419.752C521.796 437.703 507.244 452.255 489.293 452.255H89.5032C71.5522 452.255 57 437.703 57 419.752V148.503Z" fill="#E7E7E7"/>
<rect x="69" y="141" width="440" height="270" fill="#FFC7C7"/>
<rect x="117" y="237" width="102" height="117" fill="#EE8B8B"/>
<rect x="117" y="187" width="198" height="26" fill="#EE8B8B"/>
<rect x="239" y="237" width="102" height="117" fill="#EE8B8B"/>
<rect x="361" y="237" width="102" height="117" fill="#EE8B8B"/>
<rect x="116" y="381" width="102" height="30" fill="#EE8B8B"/>
<rect x="238" y="381" width="102" height="30" fill="#EE8B8B"/>
<rect x="360" y="381" width="102" height="30" fill="#EE8B8B"/>
</svg>
