<svg width="607" height="591" viewBox="0 0 607 591" fill="none" xmlns="http://www.w3.org/2000/svg">
<rect width="607" height="591" fill="#D8FFD9"/>
<rect x="105" y="174" width="451" height="309" rx="30" fill="#835797"/>
<rect x="105" y="174" width="451" height="309" rx="30" fill="#A9E2AB"/>
<path d="M57 146C57 129.431 70.4315 116 87 116H491.796C508.365 116 521.796 129.431 521.796 146V422.255C521.796 438.824 508.365 452.255 491.796 452.255H87C70.4315 452.255 57 438.824 57 422.255V146Z" fill="#E7E7E7"/>
<path d="M57 148.503C57 130.552 71.5522 116 89.5032 116H489.293C507.244 116 521.796 130.552 521.796 148.503V419.752C521.796 437.703 507.244 452.255 489.293 452.255H89.5032C71.5522 452.255 57 437.703 57 419.752V148.503Z" fill="#E7E7E7"/>
<rect x="69" y="141" width="440" height="270" fill="white"/>
<rect x="143" y="203" width="224" height="145" fill="#D8FFD9"/>
<rect x="69" y="141" width="440" height="27" fill="#DFD2EA"/>
<ellipse cx="255.5" cy="276" rx="20.5" ry="20" fill="#A9E2AB"/>
<path d="M264.526 274.988C265.161 275.376 265.165 276.296 264.534 276.69L252.5 284.2C251.836 284.615 250.975 284.14 250.971 283.357L250.896 268.457C250.892 267.674 251.749 267.19 252.417 267.598L264.526 274.988Z" fill="white"/>
<rect x="397" y="204" width="93" height="45" fill="#DFD2EA"/>
<rect x="397" y="262" width="93" height="34" fill="#DFD2EA"/>
<rect x="143" y="357" width="224" height="34" fill="#DFD2EA"/>
</svg>
