<svg width="610" height="610" viewBox="0 0 610 610" fill="none" xmlns="http://www.w3.org/2000/svg">
<rect width="610" height="610" fill="#FF736A"/>
<rect x="103.004" y="179" width="451" height="309" rx="30" fill="#CF5656"/>
<path d="M55 151C55 134.431 68.4315 121 85 121H490C506.569 121 520 134.431 520 151V428C520 444.569 506.569 458 490 458H85C68.4315 458 55 444.569 55 428V151Z" fill="#E7E7E7"/>
<path d="M55 153.575C55 135.584 69.5586 121 87.5175 121H487.483C505.441 121 520 135.584 520 153.575V425.425C520 443.416 505.441 458 487.483 458H87.5175C69.5586 458 55 443.416 55 425.425V153.575Z" fill="#E7E7E7"/>
<rect x="69" y="156" width="436" height="276" fill="white"/>
<rect x="251" y="241" width="67" height="28" rx="14" fill="#EDEDED"/>
<path d="M272.589 261.139C274.876 261.139 276.511 259.881 276.506 258.141C276.511 256.874 275.706 255.969 274.21 255.78V255.7C275.348 255.496 276.134 254.691 276.129 253.548C276.134 251.942 274.727 250.679 272.619 250.679C270.531 250.679 268.96 251.902 268.93 253.662H270.993C271.018 252.886 271.729 252.384 272.609 252.384C273.479 252.384 274.06 252.911 274.055 253.677C274.06 254.477 273.379 255.019 272.4 255.019H271.45V256.6H272.4C273.553 256.6 274.274 257.177 274.269 257.997C274.274 258.808 273.578 259.364 272.594 259.364C271.644 259.364 270.933 258.867 270.893 258.121H268.726C268.761 259.901 270.352 261.139 272.589 261.139ZM287.543 259.588L288.851 258.281L286.534 255.969L288.851 253.657L287.543 252.339L285.227 254.656L282.905 252.339L281.602 253.657L283.914 255.969L281.602 258.281L282.905 259.588L285.227 257.271L287.543 259.588ZM294.453 261H296.675L300.901 252.603V250.818H293.757V252.578H298.673V252.648L294.453 261Z" fill="black"/>
<circle cx="221.496" cy="260.5" r="19.5" fill="#FF7A00"/>
<rect x="328" y="353" width="40" height="14" rx="5" fill="#FF7A00"/>
<rect x="328" y="353" width="40" height="14" rx="5" fill="#FF7A00"/>
<rect x="328" y="353" width="40" height="14" rx="5" fill="#FFC700"/>
<rect x="328" y="350" width="40" height="14" rx="5" fill="#FF7A00"/>
<rect x="328" y="350" width="40" height="14" rx="5" fill="#FF7A00"/>
<rect x="328" y="350" width="40" height="14" rx="5" fill="#FF7A00"/>
<line x1="251" y1="306" x2="368" y2="306" stroke="#E7E7E7" stroke-width="2"/>
</svg>
