<svg width="610" height="610" viewBox="0 0 610 610" fill="none" xmlns="http://www.w3.org/2000/svg">
<rect width="610" height="610" fill="#B4A8FF"/>
<rect x="103" y="179" width="451" height="309" rx="30" fill="#835797"/>
<rect x="103" y="179" width="451" height="309" rx="30" fill="#835797"/>
<path d="M55 151C55 134.431 68.4315 121 85 121H490C506.569 121 520 134.431 520 151V428C520 444.569 506.569 458 490 458H85C68.4315 458 55 444.569 55 428V151Z" fill="#E7E7E7"/>
<path d="M55 153.575C55 135.584 69.5586 121 87.5175 121H487.483C505.441 121 520 135.584 520 153.575V425.425C520 443.416 505.441 458 487.483 458H87.5175C69.5586 458 55 443.416 55 425.425V153.575Z" fill="#E7E7E7"/>
<rect x="98" y="159" width="405" height="276" fill="white"/>
<rect x="190.121" y="208.75" width="194.76" height="126.025" fill="#DFD2EA"/>
<rect x="67" y="159" width="32" height="276" fill="#DFD2EA"/>
<ellipse cx="287.963" cy="272.231" rx="17.7054" ry="17.7368" fill="#C1A6C6"/>
<path d="M295.608 271.348C296.242 271.736 296.246 272.655 295.616 273.049L285.529 279.356C284.864 279.771 284.002 279.296 283.998 278.513L283.936 266.001C283.932 265.218 284.789 264.734 285.458 265.143L295.608 271.348Z" fill="white"/>
<rect x="211.555" y="361.848" width="173.327" height="14.0028" fill="#F1F1F1"/>
<rect x="211.555" y="385.188" width="173.327" height="14.0028" fill="#F1F1F1"/>
</svg>
